<svg viewBox="0 0 10000 10000" xmlns="http://www.w3.org/2000/svg">
<path d="M0,0 l10000,0 l0,10000 l-10000,0 z" fill="white"/>
<path d="M4151,9636 l369,0 l0,364 l-369,0 z" fill="#ff00fd" stroke="black" stroke-width="5"/>
<path d="M0,6350 l496,0 l0,3650 l-496,0 z" fill="#8100ff" stroke="black" stroke-width="5"/>
<path d="M1396,4780 l925,0 l0,648 l-925,0 z" fill="#ff00fd" stroke="black" stroke-width="5"/>
<path d="M1347,846 l2043,0 l0,852 l-2043,0 z" fill="#ff00fd" stroke="black" stroke-width="5"/>
<path d="M2045,335 l1809,0 l0,511 l-1809,0 z" fill="#a400ff" stroke="black" stroke-width="5"/>
<path d="M6034,7210 l999,0 l0,764 l-999,0 z" fill="#ff00fd" stroke="black" stroke-width="5"/>
<path d="M6191,48 l1392,0 l0,1685 l-1392,0 z" fill="#ff00fd" stroke="black" stroke-width="5"/>
<path d="M694,5428 l1754,0 l0,922 l-1754,0 z" fill="#7400ff" stroke="black" stroke-width="5"/>
<path d="M7765,7081 l2235,0 l0,487 l-2235,0 z" fill="#7f00ff" stroke="black" stroke-width="5"/>
<path d="M5620,488 l181,0 l0,181 l-181,0 z" fill="#ff00fc" stroke="black" stroke-width="5"/>
<path d="M2439,1698 l1415,0 l0,1196 l-1415,0 z" fill="#3400ff" stroke="black" stroke-width="5"/>
<path d="M790,9089 l419,0 l0,419 l-419,0 z" fill="#ff00fd" stroke="black" stroke-width="5"/>
<path d="M6914,4080 l3086,0 l0,1128 l-3086,0 z" fill="#e700ff" stroke="black" stroke-width="5"/>
<path d="M3445,7877 l567,0 l0,567 l-567,0 z" fill="#ff00fd" stroke="black" stroke-width="5"/>
<path d="M6673,8466 l89,0 l0,89 l-89,0 z" fill="#ff00fc" stroke="black" stroke-width="5"/>
<path d="M3422,3661 l658,0 l0,2442 l-658,0 z" fill="#a500ff" stroke="black" stroke-width="5"/>
<path d="M4080,4538 l861,0 l0,1493 l-861,0 z" fill="#ff00fd" stroke="black" stroke-width="5"/>
<path d="M9493,9705 l297,0 l0,295 l-297,0 z" fill="#ff00fd" stroke="black" stroke-width="5"/>
<path d="M1796,475 l249,0 l0,249 l-249,0 z" fill="#ff00fc" stroke="black" stroke-width="5"/>
<path d="M5389,4347 l352,0 l0,1786 l-352,0 z" fill="#8000ff" stroke="black" stroke-width="5"/>
<path d="M6940,2992 l933,0 l0,933 l-933,0 z" fill="#ff00fd" stroke="black" stroke-width="5"/>
<path d="M2012,2241 l427,0 l0,427 l-427,0 z" fill="#ff00fd" stroke="black" stroke-width="5"/>
<path d="M7782,5208 l1365,0 l0,863 l-1365,0 z" fill="#ff00fd" stroke="black" stroke-width="5"/>
<path d="M4350,6133 l1391,0 l0,2252 l-1391,0 z" fill="#ff00fd" stroke="black" stroke-width="5"/>
<path d="M1205,7561 l451,0 l0,1528 l-451,0 z" fill="#5100ff" stroke="black" stroke-width="5"/>
<path d="M2448,4217 l974,0 l0,1886 l-974,0 z" fill="#ff00fd" stroke="black" stroke-width="5"/>
<path d="M7199,7081 l566,0 l0,2011 l-566,0 z" fill="#8b00ff" stroke="black" stroke-width="5"/>
<path d="M496,7561 l709,0 l0,1499 l-709,0 z" fill="#ff00fd" stroke="black" stroke-width="5"/>
<path d="M5386,2346 l1027,0 l0,2001 l-1027,0 z" fill="#fc00ff" stroke="black" stroke-width="5"/>
<path d="M2491,8444 l1660,0 l0,1556 l-1660,0 z" fill="#ef00ff" stroke="black" stroke-width="5"/>
<path d="M5741,5665 l398,0 l0,541 l-398,0 z" fill="#ff00fd" stroke="black" stroke-width="5"/>
<path d="M6762,7974 l437,0 l0,554 l-437,0 z" fill="#ff00fd" stroke="black" stroke-width="5"/>
<path d="M4941,4586 l448,0 l0,1547 l-448,0 z" fill="#3500ff" stroke="black" stroke-width="5"/>
<path d="M5054,811 l1137,0 l0,1535 l-1137,0 z" fill="#ff00fe" stroke="black" stroke-width="5"/>
<path d="M3854,811 l1200,0 l0,939 l-1200,0 z" fill="#2e00ff" stroke="black" stroke-width="5"/>
<path d="M0,1071 l694,0 l0,5279 l-694,0 z" fill="#ff00fd" stroke="black" stroke-width="5"/>
<path d="M4162,2636 l1224,0 l0,1902 l-1224,0 z" fill="#8000ff" stroke="black" stroke-width="5"/>
<path d="M3854,1750 l1200,0 l0,886 l-1200,0 z" fill="#ff00fd" stroke="black" stroke-width="5"/>
<path d="M7873,1197 l2127,0 l0,1935 l-2127,0 z" fill="#ff00fd" stroke="black" stroke-width="5"/>
<path d="M7873,3132 l2127,0 l0,948 l-2127,0 z" fill="#3d00ff" stroke="black" stroke-width="5"/>
<path d="M3893,0 l1727,0 l0,811 l-1727,0 z" fill="#1f00ff" stroke="black" stroke-width="5"/>
<path d="M7765,7568 l1258,0 l0,1213 l-1258,0 z" fill="#ff00fd" stroke="black" stroke-width="5"/>
<path d="M496,6350 l2304,0 l0,1211 l-2304,0 z" fill="#ff00fe" stroke="black" stroke-width="5"/>
<path d="M2800,6103 l1550,0 l0,1774 l-1550,0 z" fill="#c600ff" stroke="black" stroke-width="5"/>
<path d="M6929,9092 l395,0 l0,395 l-395,0 z" fill="#ff00fd" stroke="black" stroke-width="5"/>
<path d="M3395,2894 l767,0 l0,767 l-767,0 z" fill="#ff00fd" stroke="black" stroke-width="5"/>
<path d="M8569,9800 l135,0 l0,135 l-135,0 z" fill="#ff00fc" stroke="black" stroke-width="5"/>
<path d="M7511,6460 l831,0 l0,621 l-831,0 z" fill="#ff00fd" stroke="black" stroke-width="5"/>
<path d="M0,0 l3893,0 l0,335 l-3893,0 z" fill="#1f00ff" stroke="black" stroke-width="5"/>
<path d="M694,4751 l543,0 l0,543 l-543,0 z" fill="#ff00fd" stroke="black" stroke-width="5"/>
<path d="M6413,3805 l501,0 l0,501 l-501,0 z" fill="#ff00fd" stroke="black" stroke-width="5"/>
<path d="M1656,7561 l835,0 l0,2183 l-835,0 z" fill="#ff00fd" stroke="black" stroke-width="5"/>
<path d="M4305,9790 l60,0 l0,60 l-60,0 z" fill="green"/>
<path d="M4335,9820 l0.5,-2" stroke="black" stroke-width="5"/>
<path d="M29,8198 l60,0 l0,60 l-60,0 z" fill="green"/>
<path d="M59,8228 l189,-53" stroke="black" stroke-width="5"/>
<path d="M1828,5212 l60,0 l0,60 l-60,0 z" fill="green"/>
<path d="M1858,5242 l0.5,-138" stroke="black" stroke-width="5"/>
<path d="M2338,1087 l60,0 l0,60 l-60,0 z" fill="green"/>
<path d="M2368,1117 l0.5,155" stroke="black" stroke-width="5"/>
<path d="M2477,530 l60,0 l0,60 l-60,0 z" fill="green"/>
<path d="M2507,560 l442.5,30.5" stroke="black" stroke-width="5"/>
<path d="M6503,7679 l60,0 l0,60 l-60,0 z" fill="green"/>
<path d="M6533,7709 l0.5,-117" stroke="black" stroke-width="5"/>
<path d="M6710,860 l60,0 l0,60 l-60,0 z" fill="green"/>
<path d="M6740,890 l147,0.5" stroke="black" stroke-width="5"/>
<path d="M1438,5634 l60,0 l0,60 l-60,0 z" fill="green"/>
<path d="M1468,5664 l103,225" stroke="black" stroke-width="5"/>
<path d="M8266,7240 l60,0 l0,60 l-60,0 z" fill="green"/>
<path d="M8296,7270 l586.5,54.5" stroke="black" stroke-width="5"/>
<path d="M5680,548 l60,0 l0,60 l-60,0 z" fill="green"/>
<path d="M5710,578 l0.5,0.5" stroke="black" stroke-width="5"/>
<path d="M3214,2300 l60,0 l0,60 l-60,0 z" fill="green"/>
<path d="M3244,2330 l-97.5,-34" stroke="black" stroke-width="5"/>
<path d="M969,9268 l60,0 l0,60 l-60,0 z" fill="green"/>
<path d="M999,9298 l0.5,0.5" stroke="black" stroke-width="5"/>
<path d="M8352,4995 l60,0 l0,60 l-60,0 z" fill="green"/>
<path d="M8382,5025 l75,-381" stroke="black" stroke-width="5"/>
<path d="M3698,8130 l60,0 l0,60 l-60,0 z" fill="green"/>
<path d="M3728,8160 l0.5,0.5" stroke="black" stroke-width="5"/>
<path d="M6687,8480 l60,0 l0,60 l-60,0 z" fill="green"/>
<path d="M6717,8510 l0.5,0.5" stroke="black" stroke-width="5"/>
<path d="M3421,5497 l60,0 l0,60 l-60,0 z" fill="green"/>
<path d="M3451,5527 l300,-645" stroke="black" stroke-width="5"/>
<path d="M4653,5254 l60,0 l0,60 l-60,0 z" fill="green"/>
<path d="M4683,5284 l-172.5,0.5" stroke="black" stroke-width="5"/>
<path d="M9611,9823 l60,0 l0,60 l-60,0 z" fill="green"/>
<path d="M9641,9853 l0.5,-0.5" stroke="black" stroke-width="5"/>
<path d="M1890,569 l60,0 l0,60 l-60,0 z" fill="green"/>
<path d="M1920,599 l0.5,0.5" stroke="black" stroke-width="5"/>
<path d="M5533,5909 l60,0 l0,60 l-60,0 z" fill="green"/>
<path d="M5563,5939 l2,-699" stroke="black" stroke-width="5"/>
<path d="M7376,3428 l60,0 l0,60 l-60,0 z" fill="green"/>
<path d="M7406,3458 l0.5,0.5" stroke="black" stroke-width="5"/>
<path d="M2195,2424 l60,0 l0,60 l-60,0 z" fill="green"/>
<path d="M2225,2454 l0.5,0.5" stroke="black" stroke-width="5"/>
<path d="M8434,5358 l60,0 l0,60 l-60,0 z" fill="green"/>
<path d="M8464,5388 l0.5,251.5" stroke="black" stroke-width="5"/>
<path d="M4758,6442 l60,0 l0,60 l-60,0 z" fill="green"/>
<path d="M4788,6472 l257.5,787" stroke="black" stroke-width="5"/>
<path d="M1420,8645 l60,0 l0,60 l-60,0 z" fill="green"/>
<path d="M1450,8675 l-19.5,-350" stroke="black" stroke-width="5"/>
<path d="M3367,5448 l60,0 l0,60 l-60,0 z" fill="green"/>
<path d="M3397,5478 l-462,-318" stroke="black" stroke-width="5"/>
<path d="M7349,8003 l60,0 l0,60 l-60,0 z" fill="green"/>
<path d="M7379,8033 l103,53.5" stroke="black" stroke-width="5"/>
<path d="M913,8220 l60,0 l0,60 l-60,0 z" fill="green"/>
<path d="M943,8250 l-92.5,60.5" stroke="black" stroke-width="5"/>
<path d="M5617,3479 l60,0 l0,60 l-60,0 z" fill="green"/>
<path d="M5647,3509 l252.5,-162.5" stroke="black" stroke-width="5"/>
<path d="M3184,9289 l60,0 l0,60 l-60,0 z" fill="green"/>
<path d="M3214,9319 l107,-97" stroke="black" stroke-width="5"/>
<path d="M5838,5905 l60,0 l0,60 l-60,0 z" fill="green"/>
<path d="M5868,5935 l72,0.5" stroke="black" stroke-width="5"/>
<path d="M6986,8195 l60,0 l0,60 l-60,0 z" fill="green"/>
<path d="M7016,8225 l-35.5,26" stroke="black" stroke-width="5"/>
<path d="M5185,5736 l60,0 l0,60 l-60,0 z" fill="green"/>
<path d="M5215,5766 l-50,-406.5" stroke="black" stroke-width="5"/>
<path d="M5645,1095 l60,0 l0,60 l-60,0 z" fill="green"/>
<path d="M5675,1125 l-52.5,453.5" stroke="black" stroke-width="5"/>
<path d="M4404,1456 l60,0 l0,60 l-60,0 z" fill="green"/>
<path d="M4434,1486 l20,-205.5" stroke="black" stroke-width="5"/>
<path d="M103,4817 l60,0 l0,60 l-60,0 z" fill="green"/>
<path d="M133,4847 l214,-1136.5" stroke="black" stroke-width="5"/>
<path d="M5093,3770 l60,0 l0,60 l-60,0 z" fill="green"/>
<path d="M5123,3800 l-349,-213" stroke="black" stroke-width="5"/>
<path d="M4410,1963 l60,0 l0,60 l-60,0 z" fill="green"/>
<path d="M4440,1993 l14,200" stroke="black" stroke-width="5"/>
<path d="M9015,3018 l60,0 l0,60 l-60,0 z" fill="green"/>
<path d="M9045,3048 l-108.5,-883.5" stroke="black" stroke-width="5"/>
<path d="M8960,3194 l60,0 l0,60 l-60,0 z" fill="green"/>
<path d="M8990,3224 l-53.5,382" stroke="black" stroke-width="5"/>
<path d="M5146,511 l60,0 l0,60 l-60,0 z" fill="green"/>
<path d="M5176,541 l-419.5,-135.5" stroke="black" stroke-width="5"/>
<path d="M8111,7869 l60,0 l0,60 l-60,0 z" fill="green"/>
<path d="M8141,7899 l253,275.5" stroke="black" stroke-width="5"/>
<path d="M1695,6898 l60,0 l0,60 l-60,0 z" fill="green"/>
<path d="M1725,6928 l-77,27.5" stroke="black" stroke-width="5"/>
<path d="M3880,6602 l60,0 l0,60 l-60,0 z" fill="green"/>
<path d="M3910,6632 l-335,358" stroke="black" stroke-width="5"/>
<path d="M7096,9259 l60,0 l0,60 l-60,0 z" fill="green"/>
<path d="M7126,9289 l0.5,0.5" stroke="black" stroke-width="5"/>
<path d="M3748,3247 l60,0 l0,60 l-60,0 z" fill="green"/>
<path d="M3778,3277 l0.5,0.5" stroke="black" stroke-width="5"/>
<path d="M8606,9837 l60,0 l0,60 l-60,0 z" fill="green"/>
<path d="M8636,9867 l0.5,0.5" stroke="black" stroke-width="5"/>
<path d="M7896,6845 l60,0 l0,60 l-60,0 z" fill="green"/>
<path d="M7926,6875 l0.5,-104.5" stroke="black" stroke-width="5"/>
<path d="M2478,44 l60,0 l0,60 l-60,0 z" fill="green"/>
<path d="M2508,74 l-561.5,93.5" stroke="black" stroke-width="5"/>
<path d="M935,4992 l60,0 l0,60 l-60,0 z" fill="green"/>
<path d="M965,5022 l0.5,0.5" stroke="black" stroke-width="5"/>
<path d="M6633,4025 l60,0 l0,60 l-60,0 z" fill="green"/>
<path d="M6663,4055 l0.5,0.5" stroke="black" stroke-width="5"/>
<path d="M1833,8376 l60,0 l0,60 l-60,0 z" fill="green"/>
<path d="M1863,8406 l210.5,246.5" stroke="black" stroke-width="5"/>
<text font-size="196.116135138184" text-anchor="middle" x="4335.5" y="9886.640647298364">
0
</text>
<text font-size="196.116135138184" text-anchor="middle" x="248" y="8243.640647298364">
1
</text>
<text font-size="196.116135138184" text-anchor="middle" x="1858.5" y="5172.6406472983645">
2
</text>
<text font-size="196.116135138184" text-anchor="middle" x="2368.5" y="1340.6406472983645">
3
</text>
<text font-size="196.116135138184" text-anchor="middle" x="2949.5" y="659.1406472983645">
4
</text>
<text font-size="196.116135138184" text-anchor="middle" x="6533.5" y="7660.6406472983645">
5
</text>
<text font-size="196.116135138184" text-anchor="middle" x="6887" y="959.1406472983645">
6
</text>
<text font-size="196.116135138184" text-anchor="middle" x="1571" y="5957.6406472983645">
7
</text>
<text font-size="196.116135138184" text-anchor="middle" x="8882.5" y="7393.1406472983645">
8
</text>
<text font-size="196.116135138184" text-anchor="middle" x="5710.5" y="647.1406472983645">
9
</text>
<text font-size="196.116135138184" text-anchor="middle" x="3146.5" y="2364.6406472983645">
10
</text>
<text font-size="196.116135138184" text-anchor="middle" x="999.5" y="9367.140647298364">
11
</text>
<text font-size="196.116135138184" text-anchor="middle" x="8457" y="4712.6406472983645">
12
</text>
<text font-size="196.116135138184" text-anchor="middle" x="3728.5" y="8229.140647298364">
13
</text>
<text font-size="196.116135138184" text-anchor="middle" x="6717.5" y="8579.140647298364">
14
</text>
<text font-size="196.116135138184" text-anchor="middle" x="3751" y="4950.6406472983645">
15
</text>
<text font-size="196.116135138184" text-anchor="middle" x="4510.5" y="5353.1406472983645">
16
</text>
<text font-size="196.116135138184" text-anchor="middle" x="9641.5" y="9921.140647298364">
17
</text>
<text font-size="196.116135138184" text-anchor="middle" x="1920.5" y="668.1406472983645">
18
</text>
<text font-size="196.116135138184" text-anchor="middle" x="5565" y="5308.6406472983645">
19
</text>
<text font-size="196.116135138184" text-anchor="middle" x="7406.5" y="3527.1406472983645">
20
</text>
<text font-size="196.116135138184" text-anchor="middle" x="2225.5" y="2523.1406472983645">
21
</text>
<text font-size="196.116135138184" text-anchor="middle" x="8464.5" y="5708.1406472983645">
22
</text>
<text font-size="196.116135138184" text-anchor="middle" x="5045.5" y="7327.6406472983645">
23
</text>
<text font-size="196.116135138184" text-anchor="middle" x="1430.5" y="8393.640647298364">
24
</text>
<text font-size="196.116135138184" text-anchor="middle" x="2935" y="5228.6406472983645">
25
</text>
<text font-size="196.116135138184" text-anchor="middle" x="7482" y="8155.1406472983645">
26
</text>
<text font-size="196.116135138184" text-anchor="middle" x="850.5" y="8379.140647298364">
27
</text>
<text font-size="196.116135138184" text-anchor="middle" x="5899.5" y="3415.1406472983645">
28
</text>
<text font-size="196.116135138184" text-anchor="middle" x="3321" y="9290.640647298364">
29
</text>
<text font-size="196.116135138184" text-anchor="middle" x="5940" y="6004.1406472983645">
30
</text>
<text font-size="196.116135138184" text-anchor="middle" x="6980.5" y="8319.640647298364">
31
</text>
<text font-size="196.116135138184" text-anchor="middle" x="5165" y="5428.1406472983645">
32
</text>
<text font-size="196.116135138184" text-anchor="middle" x="5622.5" y="1647.1406472983645">
33
</text>
<text font-size="196.116135138184" text-anchor="middle" x="4454" y="1349.1406472983645">
34
</text>
<text font-size="196.116135138184" text-anchor="middle" x="347" y="3779.1406472983645">
35
</text>
<text font-size="196.116135138184" text-anchor="middle" x="4774" y="3655.6406472983645">
36
</text>
<text font-size="196.116135138184" text-anchor="middle" x="4454" y="2261.6406472983645">
37
</text>
<text font-size="196.116135138184" text-anchor="middle" x="8936.5" y="2233.1406472983645">
38
</text>
<text font-size="196.116135138184" text-anchor="middle" x="8936.5" y="3674.6406472983645">
39
</text>
<text font-size="196.116135138184" text-anchor="middle" x="4756.5" y="474.1406472983644">
40
</text>
<text font-size="196.116135138184" text-anchor="middle" x="8394" y="8243.140647298364">
41
</text>
<text font-size="196.116135138184" text-anchor="middle" x="1648" y="7024.1406472983645">
42
</text>
<text font-size="196.116135138184" text-anchor="middle" x="3575" y="7058.6406472983645">
43
</text>
<text font-size="196.116135138184" text-anchor="middle" x="7126.5" y="9358.140647298364">
44
</text>
<text font-size="196.116135138184" text-anchor="middle" x="3778.5" y="3346.1406472983645">
45
</text>
<text font-size="196.116135138184" text-anchor="middle" x="8636.5" y="9936.140647298364">
46
</text>
<text font-size="196.116135138184" text-anchor="middle" x="7926.5" y="6839.1406472983645">
47
</text>
<text font-size="196.116135138184" text-anchor="middle" x="1946.5" y="236.1406472983644">
48
</text>
<text font-size="196.116135138184" text-anchor="middle" x="965.5" y="5091.1406472983645">
49
</text>
<text font-size="196.116135138184" text-anchor="middle" x="6663.5" y="4124.1406472983645">
50
</text>
<text font-size="196.116135138184" text-anchor="middle" x="2073.5" y="8721.140647298364">
51
</text>
</svg>